[in#0 @ 000001e17c422a40] Capturing whole desktop as 1140x940x32 at (80,80)
[in#0/gdigrab @ 000001e17c422a40] Stream #0: not enough frames to estimate rate; consider increasing probesize
Input #0, gdigrab, from 'desktop':
  Duration: N/A, start: 1783805097.084439, bitrate: 1028748 kb/s
  Stream #0:0: Video: bmp, bgra, 1140x940, 1028748 kb/s, 30 fps, 1000k tbr, 1000k tbn, start 1783805097.084439
Stream mapping:
  Stream #0:0 -> #0:0 (bmp (native) -> h264 (libx264))
Press [q] to stop, [?] for help
[libx264 @ 000001e17c4b9dc0] using cpu capabilities: MMX2 SSE2Fast SSSE3 SSE4.2 AVX FMA3 BMI2 AVX2 AVX512
[libx264 @ 000001e17c4b9dc0] profile High, level 3.2, 4:2:0, 8-bit
[libx264 @ 000001e17c4b9dc0] 264 - core 165 r3223 0480cb0 - H.264/MPEG-4 AVC codec - Copyleft 2003-2025 - http://www.videolan.org/x264.html - options: cabac=1 ref=1 deblock=1:0:0 analyse=0x3:0x113 me=hex subme=2 psy=1 psy_rd=1.00:0.00 mixed_ref=0 me_range=16 chroma_me=1 trellis=0 8x8dct=1 cqm=0 deadzone=21,11 fast_pskip=1 chroma_qp_offset=0 threads=18 lookahead_threads=6 sliced_threads=0 nr=0 decimate=1 interlaced=0 bluray_compat=0 constrained_intra=0 bframes=3 b_pyramid=2 b_adapt=1 b_bias=0 direct=1 weightb=1 open_gop=0 weightp=1 keyint=250 keyint_min=25 scenecut=40 intra_refresh=0 rc_lookahead=10 rc=crf mbtree=1 crf=18.0 qcomp=0.60 qpmin=0 qpmax=69 qpstep=4 ip_ratio=1.40 aq=1:1.00
Output #0, matroska, to 'E:\Programming\voxel-nexus\docs\evidence\milestone-completion\issue-30-reviewed\lifecycle\milestone-proof.mkv':
  Metadata:
    encoder         : Lavf62.12.102
  Stream #0:0: Video: h264 (H264 / 0x34363248), yuv420p(tv, progressive), 1140x940, q=2-31, 30 fps, 1k tbn
    Metadata:
      encoder         : Lavc62.28.102 libx264
    Side data:
      CPB properties: bitrate max/min/avg: 0/0/0 buffer size: 0 vbv_delay: N/A
frame=    0 fps=0.0 q=0.0 size=       0KiB time=N/A bitrate=N/A speed=N/A elapsed=0:00:00.51    frame=    0 fps=0.0 q=0.0 size=       0KiB time=N/A bitrate=N/A speed=N/A elapsed=0:00:01.02    frame=   15 fps=9.8 q=24.0 size=       1KiB time=00:00:00.40 bitrate=  11.9kbits/s speed=0.26x elapsed=0:00:01.53    frame=   31 fps= 15 q=24.0 size=       1KiB time=00:00:00.93 bitrate=   5.1kbits/s speed=0.453x elapsed=0:00:02.06    frame=   46 fps= 18 q=24.0 size=       1KiB time=00:00:01.43 bitrate=   3.3kbits/s speed=0.557x elapsed=0:00:02.57    frame=   62 fps= 20 q=24.0 size=       1KiB time=00:00:01.96 bitrate=   2.4kbits/s speed=0.637x elapsed=0:00:03.08    frame=   78 fps= 22 q=24.0 size=       1KiB time=00:00:02.50 bitrate=   1.9kbits/s speed=0.692x elapsed=0:00:03.61    frame=   93 fps= 22 q=24.0 size=       1KiB time=00:00:03.00 bitrate=   1.6kbits/s speed=0.725x elapsed=0:00:04.14    frame=  109 fps= 23 q=24.0 size=       1KiB time=00:00:03.53 bitrate=   1.3kbits/s speed=0.759x elapsed=0:00:04.65    frame=  124 fps= 24 q=24.0 size=       1KiB time=00:00:04.03 bitrate=   1.2kbits/s speed=0.781x elapsed=0:00:05.16    frame=  139 fps= 24 q=24.0 size=       1KiB time=00:00:04.53 bitrate=   1.0kbits/s speed=0.799x elapsed=0:00:05.67    frame=  155 fps= 25 q=24.0 size=      19KiB time=00:00:05.06 bitrate=  31.5kbits/s speed=0.817x elapsed=0:00:06.20    frame=  171 fps= 25 q=24.0 size=      19KiB time=00:00:05.60 bitrate=  28.5kbits/s speed=0.835x elapsed=0:00:06.70    frame=  186 fps= 26 q=24.0 size=      19KiB time=00:00:06.10 bitrate=  26.1kbits/s speed=0.843x elapsed=0:00:07.23    frame=  201 fps= 26 q=24.0 size=      19KiB time=00:00:06.60 bitrate=  24.2kbits/s speed=0.853x elapsed=0:00:07.73    frame=  217 fps= 26 q=24.0 size=      19KiB time=00:00:07.13 bitrate=  22.4kbits/s speed=0.863x elapsed=0:00:08.26    frame=  233 fps= 27 q=24.0 size=      19KiB time=00:00:07.66 bitrate=  20.8kbits/s speed=0.873x elapsed=0:00:08.77    frame=  248 fps= 27 q=24.0 size=      19KiB time=00:00:08.16 bitrate=  19.5kbits/s speed=0.879x elapsed=0:00:09.29    frame=  263 fps= 27 q=24.0 size=      19KiB time=00:00:08.66 bitrate=  18.4kbits/s speed=0.884x elapsed=0:00:09.80    frame=  279 fps= 27 q=24.0 size=      19KiB time=00:00:09.20 bitrate=  17.3kbits/s speed=0.892x elapsed=0:00:10.31    frame=  294 fps= 27 q=24.0 size=      19KiB time=00:00:09.70 bitrate=  16.4kbits/s speed=0.895x elapsed=0:00:10.83    frame=  310 fps= 27 q=24.0 size=      37KiB time=00:00:10.23 bitrate=  29.5kbits/s speed=0.901x elapsed=0:00:11.35    frame=  325 fps= 27 q=24.0 size=      37KiB time=00:00:10.73 bitrate=  28.1kbits/s speed=0.905x elapsed=0:00:11.86    frame=  341 fps= 28 q=24.0 size=      37KiB time=00:00:11.26 bitrate=  26.8kbits/s speed=0.909x elapsed=0:00:12.38    frame=  356 fps= 28 q=24.0 size=      37KiB time=00:00:11.76 bitrate=  25.6kbits/s speed=0.912x elapsed=0:00:12.89    frame=  372 fps= 28 q=24.0 size=      37KiB time=00:00:12.30 bitrate=  24.5kbits/s speed=0.917x elapsed=0:00:13.40    frame=  387 fps= 28 q=24.0 size=      37KiB time=00:00:12.80 bitrate=  23.6kbits/s speed=0.919x elapsed=0:00:13.93    frame=  403 fps= 28 q=24.0 size=      37KiB time=00:00:13.33 bitrate=  22.6kbits/s speed=0.923x elapsed=0:00:14.44    frame=  418 fps= 28 q=24.0 size=      37KiB time=00:00:13.83 bitrate=  21.8kbits/s speed=0.924x elapsed=0:00:14.96    frame=  434 fps= 28 q=24.0 size=      37KiB time=00:00:14.36 bitrate=  21.0kbits/s speed=0.928x elapsed=0:00:15.47    frame=  449 fps= 28 q=24.0 size=      37KiB time=00:00:14.86 bitrate=  20.3kbits/s speed=0.93x elapsed=0:00:15.99    frame=  465 fps= 28 q=24.0 size=      72KiB time=00:00:15.40 bitrate=  38.5kbits/s speed=0.932x elapsed=0:00:16.51    frame=  480 fps= 28 q=24.0 size=      72KiB time=00:00:15.90 bitrate=  37.2kbits/s speed=0.934x elapsed=0:00:17.02    frame=  495 fps= 28 q=24.0 size=      72KiB time=00:00:16.40 bitrate=  36.1kbits/s speed=0.935x elapsed=0:00:17.53    frame=  511 fps= 28 q=24.0 size=      72KiB time=00:00:16.93 bitrate=  35.0kbits/s speed=0.938x elapsed=0:00:18.04    frame=  527 fps= 28 q=24.0 size=      72KiB time=00:00:17.46 bitrate=  33.9kbits/s speed=0.94x elapsed=0:00:18.57    frame=  542 fps= 28 q=24.0 size=      72KiB time=00:00:17.96 bitrate=  33.0kbits/s speed=0.941x elapsed=0:00:19.09    frame=  557 fps= 28 q=24.0 size=      72KiB time=00:00:18.46 bitrate=  32.1kbits/s speed=0.942x elapsed=0:00:19.59    frame=  573 fps= 28 q=24.0 size=      72KiB time=00:00:19.00 bitrate=  31.2kbits/s speed=0.944x elapsed=0:00:20.12    frame=  588 fps= 28 q=24.0 size=      78KiB time=00:00:19.50 bitrate=  32.8kbits/s speed=0.945x elapsed=0:00:20.63    frame=  604 fps= 29 q=24.0 size=      78KiB time=00:00:20.03 bitrate=  32.0kbits/s speed=0.947x elapsed=0:00:21.14    frame=  619 fps= 29 q=24.0 size=      78KiB time=00:00:20.53 bitrate=  31.2kbits/s speed=0.947x elapsed=0:00:21.67    frame=  635 fps= 29 q=24.0 size=      78KiB time=00:00:21.06 bitrate=  30.4kbits/s speed=0.949x elapsed=0:00:22.18    frame=  650 fps= 29 q=24.0 size=      78KiB time=00:00:21.56 bitrate=  29.7kbits/s speed=0.95x elapsed=0:00:22.70    frame=  665 fps= 29 q=24.0 size=      78KiB time=00:00:22.06 bitrate=  29.0kbits/s speed=0.951x elapsed=0:00:23.20    frame=  681 fps= 29 q=24.0 size=      78KiB time=00:00:22.60 bitrate=  28.3kbits/s speed=0.952x elapsed=0:00:23.72    frame=  696 fps= 29 q=24.0 size=      78KiB time=00:00:23.10 bitrate=  27.7kbits/s speed=0.953x elapsed=0:00:24.24    frame=  712 fps= 29 q=24.0 size=     112KiB time=00:00:23.63 bitrate=  38.8kbits/s speed=0.955x elapsed=0:00:24.75    frame=  728 fps= 29 q=24.0 size=     112KiB time=00:00:24.16 bitrate=  37.9kbits/s speed=0.956x elapsed=0:00:25.28    frame=  743 fps= 29 q=24.0 size=     123KiB time=00:00:24.66 bitrate=  40.8kbits/s speed=0.956x elapsed=0:00:25.78    frame=  758 fps= 29 q=24.0 size=     123KiB time=00:00:25.16 bitrate=  40.0kbits/s speed=0.957x elapsed=0:00:26.30    frame=  774 fps= 29 q=24.0 size=     123KiB time=00:00:25.70 bitrate=  39.2kbits/s speed=0.958x elapsed=0:00:26.82    frame=  790 fps= 29 q=24.0 size=     123KiB time=00:00:26.23 bitrate=  38.4kbits/s speed=0.959x elapsed=0:00:27.34    frame=  805 fps= 29 q=24.0 size=     123KiB time=00:00:26.73 bitrate=  37.7kbits/s speed=0.96x elapsed=0:00:27.85    frame=  820 fps= 29 q=24.0 size=     123KiB time=00:00:27.23 bitrate=  37.0kbits/s speed=0.96x elapsed=0:00:28.36    frame=  836 fps= 29 q=24.0 size=     123KiB time=00:00:27.76 bitrate=  36.3kbits/s speed=0.962x elapsed=0:00:28.87    frame=  851 fps= 29 q=24.0 size=     123KiB time=00:00:28.26 bitrate=  35.6kbits/s speed=0.961x elapsed=0:00:29.40    frame=  867 fps= 29 q=24.0 size=     123KiB time=00:00:28.80 bitrate=  35.0kbits/s speed=0.963x elapsed=0:00:29.91    frame=  882 fps= 29 q=24.0 size=     123KiB time=00:00:29.30 bitrate=  34.4kbits/s speed=0.963x elapsed=0:00:30.43    frame=  898 fps= 29 q=24.0 size=     172KiB time=00:00:29.83 bitrate=  47.3kbits/s speed=0.964x elapsed=0:00:30.95    frame=  913 fps= 29 q=24.0 size=     172KiB time=00:00:30.33 bitrate=  46.5kbits/s speed=0.964x elapsed=0:00:31.46    frame=  929 fps= 29 q=24.0 size=     172KiB time=00:00:30.86 bitrate=  45.7kbits/s speed=0.965x elapsed=0:00:31.97    frame=  944 fps= 29 q=24.0 size=     172KiB time=00:00:31.36 bitrate=  45.0kbits/s speed=0.965x elapsed=0:00:32.48    frame=  959 fps= 29 q=24.0 size=     179KiB time=00:00:31.86 bitrate=  46.0kbits/s dup=0 drop=1 speed=0.965x elapsed=0:00:33.01    frame=  974 fps= 29 q=24.0 size=     179KiB time=00:00:32.36 bitrate=  45.3kbits/s dup=0 drop=1 speed=0.965x elapsed=0:00:33.52    frame=  989 fps= 29 q=24.0 size=     179KiB time=00:00:32.86 bitrate=  44.6kbits/s dup=0 drop=1 speed=0.966x elapsed=0:00:34.03    frame= 1005 fps= 29 q=24.0 size=     179KiB time=00:00:33.43 bitrate=  43.9kbits/s dup=0 drop=1 speed=0.968x elapsed=0:00:34.55    frame= 1021 fps= 29 q=24.0 size=     179KiB time=00:00:33.96 bitrate=  43.2kbits/s dup=0 drop=1 speed=0.968x elapsed=0:00:35.07    frame= 1036 fps= 29 q=24.0 size=     179KiB time=00:00:34.46 bitrate=  42.6kbits/s dup=0 drop=1 speed=0.969x elapsed=0:00:35.58    

[q] command received. Exiting.

[out#0/matroska @ 000001e17c442f00] video:268KiB audio:0KiB subtitle:0KiB other streams:0KiB global headers:0KiB muxing overhead: 2.726908%
frame= 1083 fps= 30 q=-1.0 Lsize=     275KiB time=00:00:36.03 bitrate=  62.6kbits/s dup=0 drop=1 speed=0.998x elapsed=0:00:36.11    
[libx264 @ 000001e17c4b9dc0] frame I:8     Avg QP: 3.45  size:  7924
[libx264 @ 000001e17c4b9dc0] frame P:282   Avg QP: 9.39  size:   467
[libx264 @ 000001e17c4b9dc0] frame B:793   Avg QP: 9.85  size:    99
[libx264 @ 000001e17c4b9dc0] consecutive B-frames:  1.9%  0.6%  2.2% 95.3%
[libx264 @ 000001e17c4b9dc0] mb I  I16..4: 95.7%  0.3%  4.1%
[libx264 @ 000001e17c4b9dc0] mb P  I16..4:  3.1%  0.0%  0.2%  P16..4:  0.2%  0.1%  0.0%  0.0%  0.0%    skip:96.4%
[libx264 @ 000001e17c4b9dc0] mb B  I16..4:  0.1%  0.0%  0.0%  B16..8:  0.3%  0.1%  0.0%  direct: 0.0%  skip:99.5%  L0:43.5% L1:55.0% BI: 1.5%
[libx264 @ 000001e17c4b9dc0] 8x8 transform intra:0.9% inter:1.8%
[libx264 @ 000001e17c4b9dc0] coded y,uvDC,uvAC intra: 3.5% 6.5% 5.3% inter: 0.0% 0.1% 0.0%
[libx264 @ 000001e17c4b9dc0] i16 v,h,dc,p: 92%  7%  1%  0%
[libx264 @ 000001e17c4b9dc0] i8 v,h,dc,ddl,ddr,vr,hd,vl,hu: 21% 26% 34%  3%  1%  1%  4%  2%  9%
[libx264 @ 000001e17c4b9dc0] i4 v,h,dc,ddl,ddr,vr,hd,vl,hu: 24% 26% 34%  2%  1%  1%  6%  1%  5%
[libx264 @ 000001e17c4b9dc0] i8c dc,h,v,p: 84%  7%  8%  1%
[libx264 @ 000001e17c4b9dc0] Weighted P-Frames: Y:1.4% UV:1.4%
[libx264 @ 000001e17c4b9dc0] kb/s:60.61
